# xmcd CD database file
#
# Track frame offsets:
#	150
#	9590
#	28804
#	50488
#	63142
#	83349
#	105341
#	113262
#	133333
#	143765
#	178826
#	191095
#	218432
#	240253
#
# Disc length: 3630 seconds
#
# Revision: 0
# Processed by: cddbd v1.5.2PL0 Copyright (c) Steve Scherf et al.
# Submitted via: CDex 1.70beta2
#
DISCID=ac0e2c0e
DTITLE=Enigma - MCMXC a.D. (Extended Edition)
DYEAR=1991
DGENRE=New Age
TTITLE0=The Voice Of Enigma
TTITLE1=Sadeness Part 1 (Principles Of Lust)
TTITLE2=Find Love
TTITLE3=Sadeness Part 2 (Reprise)
TTITLE4=Callas Went Away
TTITLE5=Mea Culpa Part 1
TTITLE6=The Snake And The Voice
TTITLE7=Knocking On Forbidden Doors
TTITLE8=The Way To Eternity
TTITLE9=In The House Of God (Rivers Of Believe)
TTITLE10=Sadeness Part3 (Meditation)
TTITLE11=Mea Culpa Part 2 (Fading Shades)
TTITLE12=Everlasting Last
TTITLE13=The Returning Silence
EXTD=YEAR: 1991
EXTT0=
EXTT1=
EXTT2=
EXTT3=
EXTT4=
EXTT5=
EXTT6=
EXTT7=
EXTT8=
EXTT9=
EXTT10=
EXTT11=
EXTT12=
EXTT13=
PLAYORDER=
